<mxfile host="Electron" agent="Mozilla/5.0 (X11; Linux x86_64) AppleWebKit/537.36 (KHTML, like Gecko) draw.io/25.0.1 Chrome/128.0.6613.186 Electron/32.2.6 Safari/537.36" version="25.0.1">
  <diagram name="Page-1" id="Xuou_koJjwVKmUIWTskT">
    <mxGraphModel dx="993" dy="635" grid="1" gridSize="10" guides="1" tooltips="1" connect="1" arrows="1" fold="1" page="1" pageScale="1" pageWidth="850" pageHeight="1100" math="0" shadow="0">
      <root>
        <mxCell id="0" />
        <mxCell id="1" parent="0" />
        <mxCell id="C8QWBK_skDaOO5yCy-M_-53" value="LeafFC" style="shape=umlLifeline;perimeter=lifelinePerimeter;whiteSpace=wrap;html=1;container=0;dropTarget=0;collapsible=0;recursiveResize=0;outlineConnect=0;portConstraint=eastwest;newEdgeStyle={&quot;edgeStyle&quot;:&quot;elbowEdgeStyle&quot;,&quot;elbow&quot;:&quot;vertical&quot;,&quot;curved&quot;:0,&quot;rounded&quot;:0};" parent="1" vertex="1">
          <mxGeometry x="85" y="1360" width="100" height="340" as="geometry" />
        </mxCell>
        <mxCell id="C8QWBK_skDaOO5yCy-M_-54" value="" style="html=1;points=[];perimeter=orthogonalPerimeter;outlineConnect=0;targetShapes=umlLifeline;portConstraint=eastwest;newEdgeStyle={&quot;edgeStyle&quot;:&quot;elbowEdgeStyle&quot;,&quot;elbow&quot;:&quot;vertical&quot;,&quot;curved&quot;:0,&quot;rounded&quot;:0};" parent="C8QWBK_skDaOO5yCy-M_-53" vertex="1">
          <mxGeometry x="45" y="90" width="10" height="230" as="geometry" />
        </mxCell>
        <mxCell id="C8QWBK_skDaOO5yCy-M_-52" value="QGC" style="shape=umlLifeline;perimeter=lifelinePerimeter;whiteSpace=wrap;html=1;container=0;dropTarget=0;collapsible=0;recursiveResize=0;outlineConnect=0;portConstraint=eastwest;newEdgeStyle={&quot;edgeStyle&quot;:&quot;elbowEdgeStyle&quot;,&quot;elbow&quot;:&quot;vertical&quot;,&quot;curved&quot;:0,&quot;rounded&quot;:0};size=40;" parent="1" vertex="1">
          <mxGeometry x="635" y="1360" width="100" height="340" as="geometry" />
        </mxCell>
        <mxCell id="C8QWBK_skDaOO5yCy-M_-37" value="QGC" style="shape=umlLifeline;perimeter=lifelinePerimeter;whiteSpace=wrap;html=1;container=0;dropTarget=0;collapsible=0;recursiveResize=0;outlineConnect=0;portConstraint=eastwest;newEdgeStyle={&quot;edgeStyle&quot;:&quot;elbowEdgeStyle&quot;,&quot;elbow&quot;:&quot;vertical&quot;,&quot;curved&quot;:0,&quot;rounded&quot;:0};size=40;" parent="1" vertex="1">
          <mxGeometry x="780" y="610" width="100" height="710" as="geometry" />
        </mxCell>
        <mxCell id="C8QWBK_skDaOO5yCy-M_-2" value="LeafFC" style="shape=umlLifeline;perimeter=lifelinePerimeter;whiteSpace=wrap;html=1;container=0;dropTarget=0;collapsible=0;recursiveResize=0;outlineConnect=0;portConstraint=eastwest;newEdgeStyle={&quot;edgeStyle&quot;:&quot;elbowEdgeStyle&quot;,&quot;elbow&quot;:&quot;vertical&quot;,&quot;curved&quot;:0,&quot;rounded&quot;:0};" parent="1" vertex="1">
          <mxGeometry x="90" y="80" width="100" height="430" as="geometry" />
        </mxCell>
        <mxCell id="C8QWBK_skDaOO5yCy-M_-8" value="QGC" style="shape=umlLifeline;perimeter=lifelinePerimeter;whiteSpace=wrap;html=1;container=0;dropTarget=0;collapsible=0;recursiveResize=0;outlineConnect=0;portConstraint=eastwest;newEdgeStyle={&quot;edgeStyle&quot;:&quot;elbowEdgeStyle&quot;,&quot;elbow&quot;:&quot;vertical&quot;,&quot;curved&quot;:0,&quot;rounded&quot;:0};" parent="1" vertex="1">
          <mxGeometry x="640" y="80" width="100" height="430" as="geometry" />
        </mxCell>
        <mxCell id="C8QWBK_skDaOO5yCy-M_-9" value="" style="html=1;points=[];perimeter=orthogonalPerimeter;outlineConnect=0;targetShapes=umlLifeline;portConstraint=eastwest;newEdgeStyle={&quot;edgeStyle&quot;:&quot;elbowEdgeStyle&quot;,&quot;elbow&quot;:&quot;vertical&quot;,&quot;curved&quot;:0,&quot;rounded&quot;:0};" parent="C8QWBK_skDaOO5yCy-M_-8" vertex="1">
          <mxGeometry x="45" y="80" width="10" height="320" as="geometry" />
        </mxCell>
        <mxCell id="C8QWBK_skDaOO5yCy-M_-10" value="Request Arming (Arming Slider)" style="html=1;verticalAlign=bottom;endArrow=block;edgeStyle=elbowEdgeStyle;elbow=vertical;curved=0;rounded=0;" parent="1" target="C8QWBK_skDaOO5yCy-M_-5" edge="1">
          <mxGeometry relative="1" as="geometry">
            <mxPoint x="685" y="160" as="sourcePoint" />
            <Array as="points">
              <mxPoint x="240" y="160" />
            </Array>
          </mxGeometry>
        </mxCell>
        <mxCell id="C8QWBK_skDaOO5yCy-M_-11" value="Notfify &quot;Armed-Idle&quot; or &quot;Not Ready To Fly&quot;" style="html=1;verticalAlign=bottom;endArrow=open;dashed=1;endSize=8;edgeStyle=elbowEdgeStyle;elbow=vertical;curved=0;rounded=0;" parent="1" edge="1">
          <mxGeometry relative="1" as="geometry">
            <mxPoint x="685" y="240" as="targetPoint" />
            <Array as="points">
              <mxPoint x="230" y="240" />
            </Array>
            <mxPoint x="150" y="240" as="sourcePoint" />
          </mxGeometry>
        </mxCell>
        <mxCell id="C8QWBK_skDaOO5yCy-M_-15" value="Request Arming (embedded in the take-off command)" style="html=1;verticalAlign=bottom;endArrow=block;edgeStyle=elbowEdgeStyle;elbow=vertical;curved=0;rounded=0;" parent="1" target="C8QWBK_skDaOO5yCy-M_-14" edge="1">
          <mxGeometry relative="1" as="geometry">
            <mxPoint x="685" y="290" as="sourcePoint" />
            <Array as="points">
              <mxPoint x="240" y="290" />
            </Array>
          </mxGeometry>
        </mxCell>
        <mxCell id="C8QWBK_skDaOO5yCy-M_-16" value="Notfify &quot;Armed&quot;" style="html=1;verticalAlign=bottom;endArrow=open;dashed=1;endSize=8;edgeStyle=elbowEdgeStyle;elbow=vertical;curved=0;rounded=0;" parent="1" edge="1">
          <mxGeometry relative="1" as="geometry">
            <mxPoint x="685" y="370" as="targetPoint" />
            <Array as="points">
              <mxPoint x="230" y="370" />
            </Array>
            <mxPoint x="150" y="370" as="sourcePoint" />
          </mxGeometry>
        </mxCell>
        <mxCell id="C8QWBK_skDaOO5yCy-M_-3" value="" style="html=1;points=[];perimeter=orthogonalPerimeter;outlineConnect=0;targetShapes=umlLifeline;portConstraint=eastwest;newEdgeStyle={&quot;edgeStyle&quot;:&quot;elbowEdgeStyle&quot;,&quot;elbow&quot;:&quot;vertical&quot;,&quot;curved&quot;:0,&quot;rounded&quot;:0};" parent="1" vertex="1">
          <mxGeometry x="135" y="150" width="10" height="330" as="geometry" />
        </mxCell>
        <mxCell id="C8QWBK_skDaOO5yCy-M_-4" value="Start" style="html=1;verticalAlign=bottom;startArrow=oval;endArrow=block;startSize=8;edgeStyle=elbowEdgeStyle;elbow=vertical;curved=0;rounded=0;" parent="1" target="C8QWBK_skDaOO5yCy-M_-3" edge="1">
          <mxGeometry relative="1" as="geometry">
            <mxPoint x="75" y="150" as="sourcePoint" />
          </mxGeometry>
        </mxCell>
        <mxCell id="C8QWBK_skDaOO5yCy-M_-5" value="" style="html=1;points=[];perimeter=orthogonalPerimeter;outlineConnect=0;targetShapes=umlLifeline;portConstraint=eastwest;newEdgeStyle={&quot;edgeStyle&quot;:&quot;elbowEdgeStyle&quot;,&quot;elbow&quot;:&quot;vertical&quot;,&quot;curved&quot;:0,&quot;rounded&quot;:0};" parent="1" vertex="1">
          <mxGeometry x="140" y="160" width="10" height="80" as="geometry" />
        </mxCell>
        <mxCell id="C8QWBK_skDaOO5yCy-M_-22" value="&lt;h1 style=&quot;margin-top: 0px;&quot;&gt;Armed, Idle, and Disarmed states&lt;/h1&gt;&lt;p&gt;&lt;b&gt;Armed:&lt;/b&gt; PX4 flight stack is armed. LeafFC sends control commands for normal operation.&lt;/p&gt;&lt;p&gt;&lt;b&gt;Idle:&lt;/b&gt; PX4 flight stack is armed. LeafFC sends the constant idling IO command configured in LeafFC, e.g. minimum ESC command to spin the motors.&lt;/p&gt;&lt;p&gt;&lt;b&gt;Disarmed:&lt;/b&gt; PX4 flight stack is disarmed. LeafFC sends the constant diarm actuator commands configured in LeafFC.&lt;/p&gt;&lt;p&gt;&lt;br&gt;&lt;/p&gt;" style="text;html=1;whiteSpace=wrap;overflow=hidden;rounded=0;" parent="1" vertex="1">
          <mxGeometry x="870" y="20" width="495" height="180" as="geometry" />
        </mxCell>
        <mxCell id="C8QWBK_skDaOO5yCy-M_-14" value="" style="html=1;points=[];perimeter=orthogonalPerimeter;outlineConnect=0;targetShapes=umlLifeline;portConstraint=eastwest;newEdgeStyle={&quot;edgeStyle&quot;:&quot;elbowEdgeStyle&quot;,&quot;elbow&quot;:&quot;vertical&quot;,&quot;curved&quot;:0,&quot;rounded&quot;:0};" parent="1" vertex="1">
          <mxGeometry x="140" y="290" width="10" height="80" as="geometry" />
        </mxCell>
        <mxCell id="C8QWBK_skDaOO5yCy-M_-23" value="&lt;h1 style=&quot;margin-top: 0px;&quot;&gt;Arming Sequence for non-RC modes&lt;/h1&gt;" style="text;html=1;whiteSpace=wrap;overflow=hidden;rounded=0;" parent="1" vertex="1">
          <mxGeometry x="140" y="20" width="495" height="50" as="geometry" />
        </mxCell>
        <mxCell id="C8QWBK_skDaOO5yCy-M_-24" value="LeafFC" style="shape=umlLifeline;perimeter=lifelinePerimeter;whiteSpace=wrap;html=1;container=0;dropTarget=0;collapsible=0;recursiveResize=0;outlineConnect=0;portConstraint=eastwest;newEdgeStyle={&quot;edgeStyle&quot;:&quot;elbowEdgeStyle&quot;,&quot;elbow&quot;:&quot;vertical&quot;,&quot;curved&quot;:0,&quot;rounded&quot;:0};" parent="1" vertex="1">
          <mxGeometry x="85" y="610" width="100" height="710" as="geometry" />
        </mxCell>
        <mxCell id="C8QWBK_skDaOO5yCy-M_-25" value="RC" style="shape=umlLifeline;perimeter=lifelinePerimeter;whiteSpace=wrap;html=1;container=0;dropTarget=0;collapsible=0;recursiveResize=0;outlineConnect=0;portConstraint=eastwest;newEdgeStyle={&quot;edgeStyle&quot;:&quot;elbowEdgeStyle&quot;,&quot;elbow&quot;:&quot;vertical&quot;,&quot;curved&quot;:0,&quot;rounded&quot;:0};size=40;" parent="1" vertex="1">
          <mxGeometry x="635" y="610" width="100" height="400" as="geometry" />
        </mxCell>
        <mxCell id="C8QWBK_skDaOO5yCy-M_-38" value="" style="html=1;points=[];perimeter=orthogonalPerimeter;outlineConnect=0;targetShapes=umlLifeline;portConstraint=eastwest;newEdgeStyle={&quot;edgeStyle&quot;:&quot;elbowEdgeStyle&quot;,&quot;elbow&quot;:&quot;vertical&quot;,&quot;curved&quot;:0,&quot;rounded&quot;:0};" parent="C8QWBK_skDaOO5yCy-M_-25" vertex="1">
          <mxGeometry x="45" y="60" width="10" height="310" as="geometry" />
        </mxCell>
        <mxCell id="C8QWBK_skDaOO5yCy-M_-27" value="Request Idle (RC Idling Switch in Idle Position)" style="html=1;verticalAlign=bottom;endArrow=block;edgeStyle=elbowEdgeStyle;elbow=vertical;curved=0;rounded=0;" parent="1" target="C8QWBK_skDaOO5yCy-M_-33" edge="1">
          <mxGeometry relative="1" as="geometry">
            <mxPoint x="680" y="690" as="sourcePoint" />
            <Array as="points">
              <mxPoint x="235" y="690" />
            </Array>
          </mxGeometry>
        </mxCell>
        <mxCell id="C8QWBK_skDaOO5yCy-M_-28" value="Notfify &quot;Armed-Idle&quot; or &quot;Not Ready To Fly&quot;" style="html=1;verticalAlign=bottom;endArrow=open;dashed=1;endSize=8;edgeStyle=elbowEdgeStyle;elbow=vertical;curved=0;rounded=0;" parent="1" target="C8QWBK_skDaOO5yCy-M_-26" edge="1">
          <mxGeometry relative="1" as="geometry">
            <mxPoint x="680" y="770" as="targetPoint" />
            <Array as="points">
              <mxPoint x="225" y="770" />
            </Array>
            <mxPoint x="145" y="770" as="sourcePoint" />
          </mxGeometry>
        </mxCell>
        <mxCell id="C8QWBK_skDaOO5yCy-M_-29" value="Request Arming (Arming Slider)" style="html=1;verticalAlign=bottom;endArrow=block;edgeStyle=elbowEdgeStyle;elbow=vertical;curved=0;rounded=0;" parent="1" source="C8QWBK_skDaOO5yCy-M_-26" target="C8QWBK_skDaOO5yCy-M_-35" edge="1">
          <mxGeometry relative="1" as="geometry">
            <mxPoint x="680" y="1120" as="sourcePoint" />
            <Array as="points">
              <mxPoint x="235" y="1120" />
            </Array>
          </mxGeometry>
        </mxCell>
        <mxCell id="C8QWBK_skDaOO5yCy-M_-30" value="Notfify &quot;Armed&quot;" style="html=1;verticalAlign=bottom;endArrow=open;dashed=1;endSize=8;edgeStyle=elbowEdgeStyle;elbow=vertical;curved=0;rounded=0;" parent="1" target="C8QWBK_skDaOO5yCy-M_-26" edge="1">
          <mxGeometry relative="1" as="geometry">
            <mxPoint x="680" y="1200" as="targetPoint" />
            <Array as="points">
              <mxPoint x="225" y="1200" />
            </Array>
            <mxPoint x="145" y="1200" as="sourcePoint" />
          </mxGeometry>
        </mxCell>
        <mxCell id="C8QWBK_skDaOO5yCy-M_-31" value="" style="html=1;points=[];perimeter=orthogonalPerimeter;outlineConnect=0;targetShapes=umlLifeline;portConstraint=eastwest;newEdgeStyle={&quot;edgeStyle&quot;:&quot;elbowEdgeStyle&quot;,&quot;elbow&quot;:&quot;vertical&quot;,&quot;curved&quot;:0,&quot;rounded&quot;:0};" parent="1" vertex="1">
          <mxGeometry x="130" y="680" width="10" height="620" as="geometry" />
        </mxCell>
        <mxCell id="C8QWBK_skDaOO5yCy-M_-32" value="Start" style="html=1;verticalAlign=bottom;startArrow=oval;endArrow=block;startSize=8;edgeStyle=elbowEdgeStyle;elbow=vertical;curved=0;rounded=0;" parent="1" target="C8QWBK_skDaOO5yCy-M_-31" edge="1">
          <mxGeometry relative="1" as="geometry">
            <mxPoint x="70" y="680" as="sourcePoint" />
          </mxGeometry>
        </mxCell>
        <mxCell id="C8QWBK_skDaOO5yCy-M_-33" value="" style="html=1;points=[];perimeter=orthogonalPerimeter;outlineConnect=0;targetShapes=umlLifeline;portConstraint=eastwest;newEdgeStyle={&quot;edgeStyle&quot;:&quot;elbowEdgeStyle&quot;,&quot;elbow&quot;:&quot;vertical&quot;,&quot;curved&quot;:0,&quot;rounded&quot;:0};" parent="1" vertex="1">
          <mxGeometry x="135" y="690" width="10" height="80" as="geometry" />
        </mxCell>
        <mxCell id="C8QWBK_skDaOO5yCy-M_-35" value="" style="html=1;points=[];perimeter=orthogonalPerimeter;outlineConnect=0;targetShapes=umlLifeline;portConstraint=eastwest;newEdgeStyle={&quot;edgeStyle&quot;:&quot;elbowEdgeStyle&quot;,&quot;elbow&quot;:&quot;vertical&quot;,&quot;curved&quot;:0,&quot;rounded&quot;:0};" parent="1" vertex="1">
          <mxGeometry x="135" y="1120" width="10" height="80" as="geometry" />
        </mxCell>
        <mxCell id="C8QWBK_skDaOO5yCy-M_-36" value="&lt;h1 style=&quot;margin-top: 0px;&quot;&gt;Arming Sequence for RC modes&lt;/h1&gt;" style="text;html=1;whiteSpace=wrap;overflow=hidden;rounded=0;" parent="1" vertex="1">
          <mxGeometry x="135" y="550" width="385" height="50" as="geometry" />
        </mxCell>
        <mxCell id="C8QWBK_skDaOO5yCy-M_-26" value="" style="html=1;points=[];perimeter=orthogonalPerimeter;outlineConnect=0;targetShapes=umlLifeline;portConstraint=eastwest;newEdgeStyle={&quot;edgeStyle&quot;:&quot;elbowEdgeStyle&quot;,&quot;elbow&quot;:&quot;vertical&quot;,&quot;curved&quot;:0,&quot;rounded&quot;:0};" parent="1" vertex="1">
          <mxGeometry x="825" y="670" width="10" height="630" as="geometry" />
        </mxCell>
        <mxCell id="C8QWBK_skDaOO5yCy-M_-39" value="Request Disarm (Idling&amp;nbsp;Switch in Disarm Position)" style="html=1;verticalAlign=bottom;endArrow=block;edgeStyle=elbowEdgeStyle;elbow=vertical;curved=0;rounded=0;" parent="1" edge="1">
          <mxGeometry relative="1" as="geometry">
            <mxPoint x="680" y="810" as="sourcePoint" />
            <Array as="points">
              <mxPoint x="235" y="810" />
            </Array>
            <mxPoint x="145" y="810" as="targetPoint" />
          </mxGeometry>
        </mxCell>
        <mxCell id="C8QWBK_skDaOO5yCy-M_-40" value="" style="html=1;points=[];perimeter=orthogonalPerimeter;outlineConnect=0;targetShapes=umlLifeline;portConstraint=eastwest;newEdgeStyle={&quot;edgeStyle&quot;:&quot;elbowEdgeStyle&quot;,&quot;elbow&quot;:&quot;vertical&quot;,&quot;curved&quot;:0,&quot;rounded&quot;:0};" parent="1" vertex="1">
          <mxGeometry x="135" y="810" width="10" height="80" as="geometry" />
        </mxCell>
        <mxCell id="C8QWBK_skDaOO5yCy-M_-41" value="Notfify &quot;Not Armed&quot;" style="html=1;verticalAlign=bottom;endArrow=open;dashed=1;endSize=8;edgeStyle=elbowEdgeStyle;elbow=vertical;curved=0;rounded=0;" parent="1" target="C8QWBK_skDaOO5yCy-M_-26" edge="1">
          <mxGeometry relative="1" as="geometry">
            <mxPoint x="680" y="890" as="targetPoint" />
            <Array as="points">
              <mxPoint x="225" y="890" />
            </Array>
            <mxPoint x="145" y="890" as="sourcePoint" />
          </mxGeometry>
        </mxCell>
        <mxCell id="C8QWBK_skDaOO5yCy-M_-47" value="Request Arming (Arming Slider)" style="html=1;verticalAlign=bottom;endArrow=block;edgeStyle=elbowEdgeStyle;elbow=vertical;curved=0;rounded=0;" parent="1" target="C8QWBK_skDaOO5yCy-M_-50" edge="1">
          <mxGeometry relative="1" as="geometry">
            <mxPoint x="680" y="1480" as="sourcePoint" />
            <Array as="points">
              <mxPoint x="235" y="1480" />
            </Array>
          </mxGeometry>
        </mxCell>
        <mxCell id="C8QWBK_skDaOO5yCy-M_-48" value="Notfify &quot;Not Armed&quot;" style="html=1;verticalAlign=bottom;endArrow=open;dashed=1;endSize=8;edgeStyle=elbowEdgeStyle;elbow=vertical;curved=0;rounded=0;" parent="1" edge="1">
          <mxGeometry relative="1" as="geometry">
            <mxPoint x="680" y="1560" as="targetPoint" />
            <Array as="points">
              <mxPoint x="225" y="1560" />
            </Array>
            <mxPoint x="145" y="1560" as="sourcePoint" />
          </mxGeometry>
        </mxCell>
        <mxCell id="C8QWBK_skDaOO5yCy-M_-50" value="" style="html=1;points=[];perimeter=orthogonalPerimeter;outlineConnect=0;targetShapes=umlLifeline;portConstraint=eastwest;newEdgeStyle={&quot;edgeStyle&quot;:&quot;elbowEdgeStyle&quot;,&quot;elbow&quot;:&quot;vertical&quot;,&quot;curved&quot;:0,&quot;rounded&quot;:0};" parent="1" vertex="1">
          <mxGeometry x="135" y="1480" width="10" height="80" as="geometry" />
        </mxCell>
        <mxCell id="C8QWBK_skDaOO5yCy-M_-51" value="" style="html=1;points=[];perimeter=orthogonalPerimeter;outlineConnect=0;targetShapes=umlLifeline;portConstraint=eastwest;newEdgeStyle={&quot;edgeStyle&quot;:&quot;elbowEdgeStyle&quot;,&quot;elbow&quot;:&quot;vertical&quot;,&quot;curved&quot;:0,&quot;rounded&quot;:0};" parent="1" vertex="1">
          <mxGeometry x="680" y="1450" width="10" height="230" as="geometry" />
        </mxCell>
        <mxCell id="C8QWBK_skDaOO5yCy-M_-55" value="Not in idle mode" style="text;html=1;align=left;verticalAlign=top;whiteSpace=wrap;rounded=0;" parent="1" vertex="1">
          <mxGeometry x="145" y="1430" width="105" height="30" as="geometry" />
        </mxCell>
        <mxCell id="C8QWBK_skDaOO5yCy-M_-56" value="PX4" style="shape=umlLifeline;perimeter=lifelinePerimeter;whiteSpace=wrap;html=1;container=0;dropTarget=0;collapsible=0;recursiveResize=0;outlineConnect=0;portConstraint=eastwest;newEdgeStyle={&quot;edgeStyle&quot;:&quot;elbowEdgeStyle&quot;,&quot;elbow&quot;:&quot;vertical&quot;,&quot;curved&quot;:0,&quot;rounded&quot;:0};" parent="1" vertex="1">
          <mxGeometry x="85" y="1850" width="100" height="320" as="geometry" />
        </mxCell>
        <mxCell id="C8QWBK_skDaOO5yCy-M_-57" value="" style="html=1;points=[];perimeter=orthogonalPerimeter;outlineConnect=0;targetShapes=umlLifeline;portConstraint=eastwest;newEdgeStyle={&quot;edgeStyle&quot;:&quot;elbowEdgeStyle&quot;,&quot;elbow&quot;:&quot;vertical&quot;,&quot;curved&quot;:0,&quot;rounded&quot;:0};" parent="C8QWBK_skDaOO5yCy-M_-56" vertex="1">
          <mxGeometry x="45" y="90" width="10" height="220" as="geometry" />
        </mxCell>
        <mxCell id="C8QWBK_skDaOO5yCy-M_-58" value="RC" style="shape=umlLifeline;perimeter=lifelinePerimeter;whiteSpace=wrap;html=1;container=0;dropTarget=0;collapsible=0;recursiveResize=0;outlineConnect=0;portConstraint=eastwest;newEdgeStyle={&quot;edgeStyle&quot;:&quot;elbowEdgeStyle&quot;,&quot;elbow&quot;:&quot;vertical&quot;,&quot;curved&quot;:0,&quot;rounded&quot;:0};size=40;" parent="1" vertex="1">
          <mxGeometry x="635" y="1850" width="100" height="320" as="geometry" />
        </mxCell>
        <mxCell id="C8QWBK_skDaOO5yCy-M_-59" value="Kill-switch engaged (RC Kill Switch in Kill position)" style="html=1;verticalAlign=bottom;endArrow=block;edgeStyle=elbowEdgeStyle;elbow=vertical;curved=0;rounded=0;" parent="1" target="C8QWBK_skDaOO5yCy-M_-61" edge="1">
          <mxGeometry relative="1" as="geometry">
            <mxPoint x="680" y="1970" as="sourcePoint" />
            <Array as="points">
              <mxPoint x="235" y="1970" />
            </Array>
          </mxGeometry>
        </mxCell>
        <mxCell id="C8QWBK_skDaOO5yCy-M_-61" value="" style="html=1;points=[];perimeter=orthogonalPerimeter;outlineConnect=0;targetShapes=umlLifeline;portConstraint=eastwest;newEdgeStyle={&quot;edgeStyle&quot;:&quot;elbowEdgeStyle&quot;,&quot;elbow&quot;:&quot;vertical&quot;,&quot;curved&quot;:0,&quot;rounded&quot;:0};" parent="1" vertex="1">
          <mxGeometry x="135" y="1970" width="10" height="50" as="geometry" />
        </mxCell>
        <mxCell id="C8QWBK_skDaOO5yCy-M_-62" value="" style="html=1;points=[];perimeter=orthogonalPerimeter;outlineConnect=0;targetShapes=umlLifeline;portConstraint=eastwest;newEdgeStyle={&quot;edgeStyle&quot;:&quot;elbowEdgeStyle&quot;,&quot;elbow&quot;:&quot;vertical&quot;,&quot;curved&quot;:0,&quot;rounded&quot;:0};" parent="1" vertex="1">
          <mxGeometry x="680" y="1940" width="10" height="220" as="geometry" />
        </mxCell>
        <mxCell id="C8QWBK_skDaOO5yCy-M_-64" value="Kill-switch disengaged (RC Kill Switch NOT in Kill position)" style="html=1;verticalAlign=bottom;endArrow=block;edgeStyle=elbowEdgeStyle;elbow=vertical;curved=0;rounded=0;" parent="1" target="C8QWBK_skDaOO5yCy-M_-65" edge="1">
          <mxGeometry relative="1" as="geometry">
            <mxPoint x="680" y="2060" as="sourcePoint" />
            <Array as="points">
              <mxPoint x="235" y="2060" />
            </Array>
          </mxGeometry>
        </mxCell>
        <mxCell id="C8QWBK_skDaOO5yCy-M_-65" value="" style="html=1;points=[];perimeter=orthogonalPerimeter;outlineConnect=0;targetShapes=umlLifeline;portConstraint=eastwest;newEdgeStyle={&quot;edgeStyle&quot;:&quot;elbowEdgeStyle&quot;,&quot;elbow&quot;:&quot;vertical&quot;,&quot;curved&quot;:0,&quot;rounded&quot;:0};" parent="1" vertex="1">
          <mxGeometry x="135" y="2060" width="10" height="55" as="geometry" />
        </mxCell>
        <mxCell id="C8QWBK_skDaOO5yCy-M_-66" value="&lt;h1 style=&quot;margin-top: 0px;&quot;&gt;RC Related Logic&lt;/h1&gt;" style="text;html=1;whiteSpace=wrap;overflow=hidden;rounded=0;" parent="1" vertex="1">
          <mxGeometry x="135" y="1780" width="495" height="50" as="geometry" />
        </mxCell>
        <mxCell id="Qw8avynCgim54BjMUdIR-1" value="QGC" style="shape=umlLifeline;perimeter=lifelinePerimeter;whiteSpace=wrap;html=1;container=0;dropTarget=0;collapsible=0;recursiveResize=0;outlineConnect=0;portConstraint=eastwest;newEdgeStyle={&quot;edgeStyle&quot;:&quot;elbowEdgeStyle&quot;,&quot;elbow&quot;:&quot;vertical&quot;,&quot;curved&quot;:0,&quot;rounded&quot;:0};size=40;" parent="1" vertex="1">
          <mxGeometry x="780" y="1850" width="100" height="320" as="geometry" />
        </mxCell>
        <mxCell id="Qw8avynCgim54BjMUdIR-2" value="" style="html=1;points=[];perimeter=orthogonalPerimeter;outlineConnect=0;targetShapes=umlLifeline;portConstraint=eastwest;newEdgeStyle={&quot;edgeStyle&quot;:&quot;elbowEdgeStyle&quot;,&quot;elbow&quot;:&quot;vertical&quot;,&quot;curved&quot;:0,&quot;rounded&quot;:0};" parent="Qw8avynCgim54BjMUdIR-1" vertex="1">
          <mxGeometry x="45" y="90" width="10" height="220" as="geometry" />
        </mxCell>
        <mxCell id="Qw8avynCgim54BjMUdIR-3" value="Notfify &quot;Kill mode&quot;" style="html=1;verticalAlign=bottom;endArrow=open;dashed=1;endSize=8;edgeStyle=elbowEdgeStyle;elbow=vertical;curved=0;rounded=0;" parent="1" target="Qw8avynCgim54BjMUdIR-2" edge="1">
          <mxGeometry relative="1" as="geometry">
            <mxPoint x="680" y="2020" as="targetPoint" />
            <Array as="points">
              <mxPoint x="225" y="2020" />
            </Array>
            <mxPoint x="145" y="2020" as="sourcePoint" />
          </mxGeometry>
        </mxCell>
        <mxCell id="Qw8avynCgim54BjMUdIR-4" value="Notfify current mode" style="html=1;verticalAlign=bottom;endArrow=open;dashed=1;endSize=8;edgeStyle=elbowEdgeStyle;elbow=vertical;curved=0;rounded=0;" parent="1" edge="1">
          <mxGeometry relative="1" as="geometry">
            <mxPoint x="825" y="2115" as="targetPoint" />
            <Array as="points">
              <mxPoint x="225" y="2115" />
            </Array>
            <mxPoint x="145" y="2115" as="sourcePoint" />
          </mxGeometry>
        </mxCell>
      </root>
    </mxGraphModel>
  </diagram>
</mxfile>
